<!DOCTYPE svg PUBLIC "-//W3C//DTD SVG 1.1//EN" "http://www.w3.org/Graphics/SVG/1.1/DTD/svg11.dtd">

<!-- Uploaded to: SVG Repo, www.svgrepo.com, Transformed by: SVG Repo Mixer Tools -->
<svg fill="#000000" width="24px" height="24px" viewBox="0 0 24 24" xmlns="http://www.w3.org/2000/svg">

<g id="SVGRepo_bgCarrier" stroke-width="0"/>

<g id="SVGRepo_tracerCarrier" stroke-linecap="round" stroke-linejoin="round"/>

<g id="SVGRepo_iconCarrier">

<path d="M15,8a1,1,0,0,1-1,1H6A1,1,0,0,1,6,7h8A1,1,0,0,1,15,8Zm-1,3H6a1,1,0,0,0,0,2h8a1,1,0,0,0,0-2Zm-4,4H6a1,1,0,0,0,0,2h4a1,1,0,0,0,0-2Zm13-3v8a3,3,0,0,1-3,3H4a3,3,0,0,1-3-3V4A3,3,0,0,1,4,1H16a3,3,0,0,1,3,3v7h3A1,1,0,0,1,23,12ZM17,4a1,1,0,0,0-1-1H4A1,1,0,0,0,3,4V20a1,1,0,0,0,1,1H17Zm4,9H19v8h1a1,1,0,0,0,1-1Z"/>

</g>

</svg>