<svg width="54" height="54" viewBox="0 0 54 54" fill="none" xmlns="http://www.w3.org/2000/svg">
<path d="M0 27C0 12.0883 12.0883 0 27 0C41.9117 0 54 12.0883 54 27C54 41.9117 41.9117 54 27 54C12.0883 54 0 41.9117 0 27Z" fill="#4D47C3"/>
<path fill-rule="evenodd" clip-rule="evenodd" d="M22.1354 17.9167H30.8656C34.0833 17.9167 35.875 19.6225 35.875 22.5454V32.445C35.875 35.4158 34.0833 37.0833 30.8656 37.0833H22.1354C18.9687 37.0833 17.125 35.4158 17.125 32.445V22.5454C17.125 19.6225 18.9687 17.9167 22.1354 17.9167ZM22.4167 22.3825V22.3729H25.5302C25.9792 22.3729 26.3438 22.7083 26.3438 23.1195C26.3438 23.5421 25.9792 23.8775 25.5302 23.8775H22.4167C21.9677 23.8775 21.6042 23.5421 21.6042 23.13C21.6042 22.7179 21.9677 22.3825 22.4167 22.3825ZM22.4167 28.2092H30.5833C31.0313 28.2092 31.3958 27.8737 31.3958 27.4617C31.3958 27.0496 31.0313 26.7132 30.5833 26.7132H22.4167C21.9677 26.7132 21.6042 27.0496 21.6042 27.4617C21.6042 27.8737 21.9677 28.2092 22.4167 28.2092ZM22.4167 32.5887H30.5833C30.999 32.5504 31.3125 32.2236 31.3125 31.8412C31.3125 31.4483 30.999 31.1225 30.5833 31.0842H22.4167C22.1042 31.0554 21.8021 31.1896 21.6354 31.4387C21.4687 31.6783 21.4687 31.9946 21.6354 32.2438C21.8021 32.4833 22.1042 32.6271 22.4167 32.5887Z" fill="white"/>
</svg>
