<svg width="24" height="24" viewBox="0 0 24 24" fill="none" xmlns="http://www.w3.org/2000/svg">
<path d="M3.29445 17.3284C4.04997 20.5497 6.94971 22 9.49688 22C9.49688 22 9.49688 22 9.50408 22C12.0441 22 14.951 20.5567 15.7065 17.3354C16.5484 13.7376 15.5121 10.4954 13.4542 8.57798C12.6915 7.86679 10.4755 3 9.49688 3C8.51831 3 6.29549 7.86679 5.53997 8.57798C3.48209 10.4954 2.45259 13.7306 3.29445 17.3284Z" fill="#5990e5" fill-opacity="0.4"/>
<path d="M13.1812 13.0495C13.6461 15.084 15.4306 16 16.9981 16C16.9981 16 16.9981 16 17.0025 16C18.5656 16 20.3545 15.0884 20.8194 13.0539C21.3375 10.7817 20.6998 8.73394 19.4334 7.52294C18.964 7.07376 17.6003 4 16.9981 4C16.3959 4 15.028 7.07376 14.5631 7.52294C13.2967 8.73394 12.6631 10.7772 13.1812 13.0495Z" fill="#5990e5"/>
</svg>
