<svg width="24" height="24" viewBox="0 0 24 24" fill="none" xmlns="http://www.w3.org/2000/svg">
  <path opacity="0.4"
        d="M10.7001 2.21C10.3401 1.93 9.84016 1.93 9.48016 2.21C7.58016 3.66 1.97012 8.39 2.00012 13.9C2.00012 18.36 5.63016 22 10.1002 22C14.5702 22 18.2001 18.37 18.2001 13.91C18.2101 8.48 12.5901 3.67 10.7001 2.21Z"
        fill="#551fff"/>
  <path
    d="M16.4445 0.1575C16.1778 -0.0525 15.8075 -0.0525 15.5408 0.1575C14.1334 1.245 9.97787 4.7925 10.0001 8.925C10.0001 12.27 12.689 15 16.0001 15C19.3111 15 22 12.2775 22 8.9325C22.0074 4.86 17.8445 1.2525 16.4445 0.1575Z"
    fill="#551fff"/>
</svg>
